<svg width="542" height="349" viewBox="0 0 542 349" fill="none" xmlns="http://www.w3.org/2000/svg">
<path d="M45.8243 35.9565C47.0716 35.2692 49.503 35.9565 49.503 35.9565C49.503 35.9565 51.2532 35.5917 52.2621 35.9565C53.4511 36.3865 54.5614 38.1736 54.5614 38.1736L62.3788 33.2961L66.9773 26.2016L70.656 23.5412H80.3128H85.831L91.3492 20.4374H95.4878H99.1666H104.685L111.582 23.5412H118.02L127.217 26.2016H134.575L141.932 29.7489C142.086 28.5665 143.22 26.9111 146.531 29.7489C149.842 32.5867 154.042 35.0697 155.728 35.9565V38.1736L161.706 35.9565L166.764 38.1736V42.1642H171.363V38.1736H175.041H178.26L181.02 35.9565L186.538 38.1736H192.976L196.194 42.1642V45.268L199.873 42.1642L205.391 38.1736L208.61 35.9565L212.749 38.1736V42.1642L215.508 45.268C215.508 47.3372 216.06 50.8549 218.267 48.3718C220.474 45.8888 224.705 43.1988 226.544 42.1642L231.143 45.268L236.661 42.1642H241.719C241.413 43.051 239.42 43.051 245.858 48.3718C252.296 53.6927 253.829 49.4065 255.055 48.3718V45.268L252.296 38.1736L255.055 33.2961V26.2016L261.493 20.4374L264.252 17.3335L267.931 14.6731H272.069H275.288H281.266C283.872 13.7863 289.544 12.5448 291.383 14.6731C300.12 17.3335 303.799 23.9846 304.259 14.6731C304.377 12.2829 304.222 11.0906 303.981 10.5712C301.982 12.8731 303.313 9.12925 303.981 10.5712C304.068 10.472 304.16 10.3616 304.259 10.2391C306.834 7.04659 311.156 5.06606 312.996 4.47486H319.434H323.572H326.331L332.309 1.37103C333.996 0.336418 337.828 -1.11204 339.667 1.37103C341.506 3.85409 345.338 2.40564 347.025 1.37103C348.404 0.484223 351.715 -0.136538 353.922 4.47486C356.13 9.08625 358.827 13.1951 359.9 14.6731V20.4374L364.039 23.5412L368.637 29.7489L364.039 33.2961H359.9V38.1736L364.039 45.268V48.3718V53.6927H368.637H373.696L377.374 58.5702H380.134L384.272 53.6927L389.79 58.5702L393.929 63.891L398.068 69.2119V77.1932V86.0612L402.206 91.8255L408.644 94.9293C407.878 93.8947 407.449 91.8255 411.863 91.8255C416.278 91.8255 421.06 93.8947 422.899 94.9293L426.118 98.4766H430.717C430.717 100.546 431.545 104.063 434.855 101.58C438.166 99.0974 442.673 96.1117 444.512 94.9293C444.512 95.9639 445.8 97.4124 450.95 94.9293C456.1 92.4463 456.468 91.8255 460.607 94.9293C464.746 98.0332 464.286 98.4766 464.286 98.4766C462.446 99.3634 459.871 101.846 464.286 104.684C475.322 110.892 473.483 113.109 478.541 114.883C483.599 116.656 483.139 106.31 484.059 104.684L488.198 109.562C487.585 111.335 487.738 114.883 493.256 114.883C498.774 114.883 504.139 117.543 506.132 118.873C505.979 116.213 506.592 111.69 510.27 114.883C514.046 123.952 521.307 122.864 525.445 127.741C529.584 132.619 531.883 130.845 531.883 130.845C532.496 128.776 534.183 125.258 536.022 127.741C537.861 130.224 536.788 134.392 536.022 136.166L542 140.6L539.241 145.477L536.022 151.242H528.664L525.445 155.232L528.664 160.553H536.022V165.431H531.883H528.664C525.445 166.613 520.295 169.244 525.445 170.308C530.596 171.372 531.883 175.481 531.883 177.403V183.167C534.642 182.428 539.333 182.103 536.022 186.714C532.711 191.325 529.737 196.912 528.664 199.129V204.894L521.307 207.554H515.789L510.27 204.894H506.132L500.154 207.554V212.875H493.256L488.198 216.422L484.059 225.29V230.168V235.045L478.541 239.479H475.782H467.505H460.607L456.468 246.13H450.95L444.512 251.008L441.293 257.215L434.855 251.008L426.118 257.215H414.622L404.965 261.206L398.068 267.414L395.998 270.517L393.929 273.621L389.79 279.829V275.395L393.929 273.621L395.998 270.517L393.929 267.414L389.79 270.517L384.272 273.621L380.134 275.395L384.272 283.82L387.031 293.574L389.79 299.782L398.068 308.207H402.206C407.357 308.207 410.79 305.546 411.863 304.216L414.622 308.207C413.396 305.546 413.335 301.024 422.899 304.216C432.464 307.409 432.096 310.572 430.717 311.754V320.622L422.899 323.726H414.622L404.965 320.622H398.068V323.726L389.79 328.16L387.031 331.707H384.272H377.374L373.696 334.811L368.637 338.802L364.039 345.896L356.681 349H347.025L340.127 345.896L337.368 341.906L340.127 338.802L342.886 331.707V328.16V323.726L340.127 320.622L337.368 316.188H331.85L327.711 311.754L322.193 308.207L318.054 311.754H312.536V308.207V304.216L318.054 299.782H322.193L327.711 293.574H334.609L340.127 290.914L347.025 288.254V283.82V279.829H342.886H337.368L331.85 275.395H327.711H318.054L312.536 279.829H307.018C307.937 278.794 308.213 276.104 301.959 273.621C295.706 271.138 295.062 268.448 295.522 267.414V263.866H292.303H289.084L284.945 261.206L289.084 257.215L292.303 263.866H295.522L301.27 262.536L295.522 257.215L289.084 254.111H284.945L278.967 257.215H272.529H264.252L261.493 261.206L257.814 267.414L255.055 275.395L249.537 283.82L241.719 290.914L231.143 299.782L226.544 304.216H231.143V311.754H226.544L218.267 308.207H212.749L205.391 311.754H199.873L196.194 316.188L186.538 311.754L183.319 305.99V304.216H190.216V299.782L192.976 293.574C192.822 293.574 193.251 293.042 196.194 290.914C199.138 288.786 197.421 285.298 196.194 283.82H202.632L205.391 279.829V275.395V267.414V263.866L210.91 258.989L212.749 263.866H218.267H222.406C225.717 263.866 229.61 266.231 231.143 267.414H236.661H241.719L236.661 261.206C237.581 261.502 238.868 260.496 236.661 254.111C234.454 247.726 232.063 249.382 231.143 251.008C230.99 251.599 229.855 251.451 226.544 246.13C223.234 237.262 222.406 231.793 222.406 230.168H218.267L215.508 225.29L210.91 222.186V216.422V212.875V204.894L208.61 199.129H205.391C206.618 199.129 207.783 198.509 202.632 196.026C197.482 193.542 194.049 193.217 192.976 193.365H190.216L186.538 190.705H183.319L181.02 186.714L175.041 183.167L171.363 177.403H166.764C157.935 179.886 152.969 182.28 151.589 183.167H146.531H141.932V186.714H134.575L127.217 190.705L121.699 199.129H111.582H104.685L95.4878 204.894L85.831 212.875L80.3128 208.884L75.7144 204.894L70.656 201.79H66.9773H62.3788H54.5614L49.503 199.129H42.6053L35.2478 196.026H29.7296L25.1311 199.129L21.4523 196.026L15.9342 193.365L11.3357 190.705L7.65689 186.714L3.51827 183.167C1.67887 183.019 -1.44809 181.659 0.759178 177.403C2.96645 173.146 6.27735 169.421 7.65689 168.091V162.77L11.3357 157.449L15.9342 152.128H21.4523L15.9342 147.251C19.6129 148.433 25.8669 149.379 21.4523 143.704C15.9342 136.609 15.9342 128.628 15.9342 128.628C15.9342 128.628 26.9705 117.395 29.7296 114.883C29.1165 114.291 29.3617 111.956 35.2478 107.345C41.1338 102.733 44.7513 97.1463 45.8243 94.9293C46.8972 92.7123 52.2621 91.8255 52.2621 91.8255L54.5614 89.1651C54.5614 89.1651 58.1158 87.9198 59.1598 86.0612C61.0724 82.6566 54.5614 77.1932 54.5614 77.1932L59.1598 73.6459C59.1598 73.6459 60.4297 70.4363 59.1598 69.2119C57.89 67.9875 54.5614 69.2119 54.5614 69.2119C54.5614 69.2119 54.4081 64.0388 54.5614 63.891C54.7146 63.7432 58.7 63.4476 52.2621 58.5702C45.8243 53.6927 45.8243 42.1642 45.8243 42.1642C45.8243 42.1642 43.6414 37.1593 45.8243 35.9565Z" fill="url(#paint0_linear_636_1432)"/>
<defs>
<linearGradient id="paint0_linear_636_1432" x1="271" y1="0" x2="271" y2="349" gradientUnits="userSpaceOnUse">
<stop stop-color="#2254CD"/>
<stop offset="1" stop-color="#3E8FFF"/>
</linearGradient>
</defs>
</svg>
